<svg xmlns="http://www.w3.org/2000/svg" viewBox="0 0 824 735" fill="none" role="img" aria-label="Flexi House">
<polygon points="26,578 26,706 29,709 321,709 324,706 324,578 321,575 29,575" fill="#0c3558"/>
<polygon points="168,385 27,468 26,543 29,546 166,546 169,543" fill="#082749"/>
<polygon points="684,639 685,690 689,705 734,707 739,683 725,680 719,673 692,677 688,639" fill="#308db9"/>
<polygon points="205,362 200,372 202,540 206,544 319,544 319,540 308,537 308,520 311,513 322,515 322,492 318,492 316,498 305,495 305,506 298,507 291,478 263,460 257,448 265,447 308,475 322,479 322,461 311,460 311,450 322,449 322,425 312,425 308,413 291,411 289,404 279,401 269,387 266,372 243,349 243,342" fill="#1c6793"/>
<polygon points="346,284 346,288 367,289 389,303 425,345 447,345 494,316 493,311 463,307 460,301 445,299 393,267 381,269 379,263" fill="#2a86b2"/>
<polygon points="577,250 570,267 562,268 562,273 574,275 679,338 684,345 684,543 688,546 796,545 796,541 785,539 785,533 799,529 798,264 742,227 738,227 737,233 729,232 731,220 709,209 708,219 685,229 615,244 596,252" fill="#1f5d92"/>
<polygon points="650,177 606,146 586,137 430,230 430,235 438,237 490,223 492,215 511,219 543,210 572,213 584,175 621,173 650,181" fill="#2b86b4"/>
<polygon points="504,85 504,92 499,96 501,110 523,132 538,127 538,123 529,119 526,109 530,98" fill="#1d6c81"/>
<polygon points="798,534 730,533 717,534 717,538 797,539" fill="#2270a6"/>
<polygon points="312,513 309,537 317,540 320,536 318,516" fill="#20729d"/>
<polygon points="221,424 228,435 292,478 299,507 304,506 306,499 316,498 318,480 314,474 305,474" fill="#21709d"/>
<polygon points="347,280 244,343 244,349 267,372 276,397 290,405 292,411 309,413 312,431 317,430 323,414 379,384 388,372 434,351 434,346 420,342 389,304 367,290 348,288" fill="#2579a4"/>
<polygon points="710,214 649,171 645,171 644,179 621,174 585,175 573,213 548,210 515,219 491,215 489,224 472,226 461,233 438,238 423,233 384,256 384,261 463,307 501,311 531,293 532,284 548,283 559,276 561,268 569,267 577,249 596,251 645,236 661,235 710,218" fill="#2779a6"/>
<polygon points="518,99 529,111 532,121 545,122 551,118 543,107" fill="#1c7187"/>
<polygon points="416,28 403,30 262,116 255,128 255,136 262,144 260,178 248,178 248,182 341,241 347,241 519,138 522,131 500,110 499,95 504,92 501,84" fill="#3d8773"/>
<polygon points="259,143 242,141 220,150 198,153 28,255 27,427 37,425 194,334 203,324 252,296 259,285 281,270 299,268 339,244 339,239 247,182 261,151" fill="#81ba45"/>
<polygon points="795,575 693,579 688,587 692,677 719,672 725,679 738,681 740,690 733,703 757,707 798,706 799,579" fill="#3f9dc5"/>
<polygon points="531,531 528,534 529,580 578,582 581,534 578,531" fill="#58bad9"/>
<polygon points="458,531 455,534 456,581 506,582 508,534 505,531" fill="#5bbad9"/>
<polygon points="532,459 529,462 530,509 578,510 581,507 580,462" fill="#58b9d8"/>
<polygon points="456,461 455,508 458,511 507,509 506,460" fill="#5ab8d7"/>
</svg>