<?xml version="1.0" encoding="UTF-8"?>
<svg version="1.2" baseProfile="tiny-ps" xmlns="http://www.w3.org/2000/svg" viewBox="0 0 1024 1024">
<title>Statly</title>
<rect width="1024" height="1024" fill="#1b7f5f"/>
<g transform="translate(0,1024) scale(0.1,-0.1)" fill="#ffffff">
<path d="M6390 8884 c-57 -22 -90 -44 -167 -112 -105 -91 -177 -154 -293 -252 -104 -88 -178 -152 -291 -250 -147 -128 -202 -176 -256 -221 -47 -40 -107 -92 -368 -319 -127 -110 -384 -331 -570 -490 -87 -74 -182 -155 -210 -180 -28 -25 -98 -83 -155 -130 -57 -47 -108 -89 -114 -95 -6 -5 -45 -39 -86 -75 -41 -36 -77 -67 -80 -70 -3 -3 -34 -30 -70 -60 -71 -61 -95 -85 -190 -186 -66 -70 -118 -133 -134 -163 -5 -9 -17 -25 -27 -36 -27 -31 -134 -243 -157 -310 -50 -152 -61 -301 -53 -710 6 -292 7 -301 29 -332 14 -20 38 -37 62 -44 66 -20 109 10 323 225 104 105 201 208 214 228 l25 37 -25 58 c-59 140 -63 267 -15 433 47 163 228 395 458 589 30 25 108 93 173 151 65 58 143 125 172 150 76 64 253 220 370 325 55 50 127 112 160 140 33 27 89 77 125 110 36 33 117 105 180 160 63 55 142 125 175 155 64 57 231 207 420 376 61 55 144 128 185 164 41 36 99 88 130 116 30 28 75 68 100 90 169 148 214 204 225 274 14 99 -26 191 -100 230 -39 22 -135 35 -165 24z M6260 6858 c-52 -30 -85 -56 -201 -164 -186 -172 -260 -236 -343 -299 -79 -58 -354 -287 -626 -520 -74 -64 -173 -148 -220 -187 -47 -40 -92 -79 -100 -88 -8 -8 -35 -33 -60 -54 -25 -22 -92 -83 -150 -136 -58 -54 -127 -117 -155 -140 -260 -223 -297 -284 -246 -395 34 -74 102 -115 188 -115 84 0 132 32 343 225 36 33 168 152 295 265 126 113 266 239 310 280 131 121 288 257 395 340 25 19 61 49 80 66 19 18 64 55 100 84 36 28 74 58 85 68 11 9 41 32 66 52 80 61 142 113 200 165 30 27 103 90 161 139 137 113 160 148 162 236 1 49 -4 76 -19 103 -11 20 -22 37 -25 37 -4 0 -15 8 -26 18 -51 46 -152 56 -214 20z M6705 5824 c-46 -7 -131 -53 -183 -98 -26 -23 -94 -78 -151 -121 -57 -44 -135 -106 -175 -138 -39 -32 -78 -64 -86 -70 -29 -23 -125 -102 -130 -107 -3 -3 -30 -25 -60 -50 -30 -24 -75 -62 -100 -85 -25 -22 -72 -62 -105 -90 -33 -27 -95 -81 -139 -120 -43 -38 -98 -86 -121 -105 -39 -33 -141 -122 -319 -280 -79 -70 -229 -205 -366 -329 -129 -118 -385 -347 -475 -426 -44 -39 -94 -84 -110 -100 -34 -33 -230 -207 -344 -305 -125 -107 -169 -157 -182 -203 -23 -86 7 -169 80 -222 40 -30 54 -35 104 -35 40 0 71 7 100 21 37 19 238 189 292 246 11 12 43 41 70 64 28 23 97 86 155 139 58 53 125 115 150 136 25 21 47 41 50 44 3 3 34 32 70 65 36 33 119 110 185 171 66 60 143 130 170 155 62 54 415 389 470 445 22 22 80 83 130 135 49 52 144 150 210 219 66 69 138 145 159 170 21 25 80 88 130 140 50 52 129 138 176 190 46 52 90 96 97 98 11 3 12 -10 7 -60 -6 -62 0 -105 32 -238 34 -138 30 -229 -17 -404 -44 -163 -145 -323 -309 -486 -59 -59 -246 -232 -320 -296 -25 -21 -56 -50 -70 -64 -14 -14 -72 -68 -130 -120 -57 -52 -138 -127 -180 -166 -41 -39 -95 -89 -120 -110 -25 -21 -70 -62 -100 -90 -30 -29 -83 -76 -117 -105 -34 -30 -124 -110 -200 -178 -76 -68 -176 -158 -223 -200 -224 -200 -250 -235 -250 -335 0 -30 5 -58 10 -61 6 -3 10 -13 10 -21 0 -22 69 -93 110 -112 24 -12 60 -17 115 -17 79 0 81 1 142 45 34 25 115 92 180 150 64 58 136 121 159 140 46 38 149 130 414 365 25 23 61 54 80 69 19 16 55 47 80 70 25 22 79 70 120 106 41 36 77 67 80 70 3 3 39 34 80 70 41 36 95 84 120 106 25 23 74 66 109 95 35 30 92 79 127 109 35 30 101 87 146 126 103 88 217 207 286 299 50 66 140 231 156 285 23 78 29 100 37 145 27 147 30 215 24 540 -6 358 -18 518 -42 573 -21 47 -70 100 -114 123 -39 20 -129 31 -184 23z M3961 2052 c-45 -38 -64 -94 -48 -147 20 -70 69 -105 146 -105 40 0 53 5 83 33 47 43 63 95 47 145 -7 20 -28 52 -47 70 -31 28 -42 32 -92 32 -46 0 -61 -5 -89 -28z M3459 1591 c-48 -40 -66 -95 -48 -146 26 -71 85 -104 162 -90 42 8 60 23 86 68 25 45 26 73 5 116 -41 82 -138 107 -205 52z"/>
</g>
</svg>
